<svg xmlns="http://www.w3.org/2000/svg" width="16" height="17" viewBox="0 0 16 17"><path fill="#fff" d="M15.74 14.71l-1.05-.79a2.68 2.68 0 0 0-3.09 0c-.99.8-1.78.14-2.11-.19a2.65 2.65 0 0 0-3.14-.05s-.75.74-1.7.14a2.72 2.72 0 0 0-3.08 0l-1.28.99c-.3.2-.38.61-.14.92.14.17.52.44.95.13l1.29-.98c.4-.31 1.08-.31 1.49 0 .88.64 2.24.64 3.08 0 0 0 .81-.75 1.7-.14 0 0 1.59 1.66 3.55.37 0 0 .82-.72 1.7-.13l1.05.78a.65.65 0 0 0 .78-1.05zM1.09 13.08l1.3-.99c.4-.31 1.08-.31 1.48 0 .88.64 2.24.64 3.09 0 0 0 .8-.75 1.69-.14 0 0 1.6 1.66 3.56.38 0 0 .81-.73 1.7-.14l1.04.78a.65.65 0 0 0 .78-1.05l-1.05-.79a2.57 2.57 0 0 0-1.42-.49l2.33-4.86c.07-.17.17-.67-.4-.91l-1.15-.37-.57-3.92a.63.63 0 0 0-.65-.58H3.1c-.3 0-.6.24-.64.58L1.9 4.52.8 4.87c-.57.3-.49.69-.4.92l2.28 4.79c-.4.06-.79.22-1.1.45l-1.3.99c-.3.2-.36.61-.13.92.14.17.52.44.95.14zm12.99-7.19s-2.47 5.18-2.48 5.25c-.99.8-1.78.13-2.12-.19a2.15 2.15 0 0 0-.57-.33l.01-6.36zM3.67 1.33h8.6l.4 2.74-3.9-1.28a2.16 2.16 0 0 0-1.31-.01L3.3 4.08zM1.9 5.92l5.66-1.78v6.28c-.38.05-.8.19-1.22.48 0 0-.83.84-2.12-.11z"/></svg>