<?xml version="1.0" encoding="utf-8"?>
<!-- Generator: Adobe Illustrator 20.1.0, SVG Export Plug-In . SVG Version: 6.00 Build 0)  -->
<svg version="1.1" id="Capa_1" xmlns="http://www.w3.org/2000/svg" xmlns:xlink="http://www.w3.org/1999/xlink" x="0px" y="0px"
	 viewBox="0 0 512 541" style="enable-background:new 0 0 512 541;" xml:space="preserve">
<style type="text/css">
	.st0{fill:#FFFFFF;stroke:#FFFFFF;stroke-width:18;stroke-miterlimit:10;}
	.st1{fill:#FFFFFF;stroke:#FFFFFF;stroke-width:16;stroke-miterlimit:10;}
</style>
<g>
	<path class="st0" d="M262,126.3c-39.4-2.5-72.1,30.1-69.6,69.6c2.1,32.6,28.4,58.9,61,61c39.4,2.5,72.1-30.1,69.6-69.6
		C320.9,154.8,294.6,128.4,262,126.3z M261.9,238.2c-29.1,2.6-53.4-21.7-50.8-50.8c2-22.3,20-40.3,42.3-42.3
		c29.1-2.6,53.4,21.7,50.8,50.8C302.2,218.3,284.3,236.2,261.9,238.2z"/>
	<path class="st1" d="M382.8,66.5C348.9,32.7,303.9,14,256,14s-92.9,18.7-126.8,52.5c-62.7,62.7-70.5,180.6-16.9,252L256,526
		l143.4-207.2C453.3,247.1,445.5,129.2,382.8,66.5z M384.3,307.9L256,493.1L127.5,307.6c-48.6-64.8-41.6-171.3,14.9-227.9
		c30.3-30.3,70.7-47,113.6-47s83.2,16.7,113.6,47C426.2,136.3,433.1,242.8,384.3,307.9z"/>
</g>
</svg>
