<svg xmlns="http://www.w3.org/2000/svg" width="11" height="18" viewBox="0 0 11 18"><path fill="#fff" d="M4.29 1.1v1.44h-.13C1.87 2.54 0 4.24 0 6.31c0 2.08 1.87 3.77 4.16 3.77h2.68c.96 0 1.73.7 1.73 1.57 0 .86-.77 1.57-1.73 1.57H2.02c-.67 0-1.21.5-1.21 1.1 0 .61.55 1.1 1.21 1.1h2.27v1.48c0 .6.55 1.1 1.22 1.1.67 0 1.21-.5 1.21-1.1v-1.48h.12c2.29 0 4.16-1.69 4.16-3.76 0-2.08-1.87-3.77-4.16-3.77H4.16c-.96 0-1.74-.7-1.74-1.57 0-.87.78-1.57 1.74-1.57h4.73c.67 0 1.22-.5 1.22-1.1 0-.6-.55-1.1-1.22-1.1H6.72V1.1C6.72.5 6.17 0 5.51 0c-.68 0-1.22.5-1.22 1.1z"/></svg>